<svg width="31" height="26" viewBox="0 0 31 26" fill="none" xmlns="http://www.w3.org/2000/svg">
<path d="M7.95361 15.0468L11.2756 24.2415C11.2756 24.2415 11.6909 25.1018 12.1356 25.1018C12.5804 25.1018 19.1951 18.2204 19.1951 18.2204L26.551 4.0127L8.07211 12.6733L7.95361 15.0468Z" fill="#C8DAEA"/>
<path d="M12.3579 17.4048L11.7202 24.1822C11.7202 24.1822 11.4532 26.2589 13.5294 24.1822C15.6056 22.1056 17.5929 20.5042 17.5929 20.5042" fill="#A9C6D8"/>
<path d="M8.0135 15.3747L1.1801 13.1482C1.1801 13.1482 0.3634 12.8169 0.6264 12.0655C0.6805 11.9106 0.7897 11.7788 1.1164 11.5522C2.6305 10.4968 29.1411 0.968218 29.1411 0.968218C29.1411 0.968218 29.8897 0.716017 30.3311 0.883717C30.4403 0.917517 30.5386 0.979817 30.6159 1.06402C30.6932 1.14832 30.7467 1.25152 30.771 1.36322C30.8187 1.56062 30.8386 1.76362 30.8302 1.96642C30.8281 2.14192 30.8069 2.30452 30.7908 2.55952C30.6293 5.16472 25.7975 24.6079 25.7975 24.6079C25.7975 24.6079 25.5084 25.7456 24.4726 25.7846C24.218 25.7928 23.9645 25.7497 23.7269 25.6578C23.4894 25.5659 23.2728 25.4272 23.0901 25.2498C21.0575 23.5014 14.0323 18.7802 12.48 17.7418C12.4449 17.718 12.4155 17.6869 12.3935 17.6507C12.3715 17.6144 12.3575 17.5739 12.3526 17.5318C12.3309 17.4224 12.4499 17.2868 12.4499 17.2868C12.4499 17.2868 24.6826 6.41352 25.0081 5.27202C25.0333 5.18362 24.9381 5.14002 24.8102 5.17872C23.9978 5.47762 9.9133 14.372 8.3588 15.3537C8.2469 15.3875 8.1287 15.3947 8.0135 15.3747Z" fill="white"/>
</svg>
